<svg width="200" height="200" viewBox="0 0 200 200" fill="none" xmlns="http://www.w3.org/2000/svg">
  <!-- Signal Arcs -->
  <path d="M70 45C80 35 120 35 130 45" stroke="#4CAF50" stroke-width="6" stroke-linecap="round"/>
  <path d="M80 55C86 48 114 48 120 55" stroke="#4CAF50" stroke-width="6" stroke-linecap="round"/>
  <path d="M90 65C93 62 107 62 110 65" stroke="#4CAF50" stroke-width="6" stroke-linecap="round"/>

  <!-- Figures -->
  <circle cx="75" cy="90" r="12" fill="#03A9F4"/>
  <path d="M60 115C60 105 90 105 90 115" fill="#03A9F4"/>
  
  <circle cx="100" cy="85" r="15" fill="#4CAF50"/>
  <path d="M80 115C80 100 120 100 120 115" fill="#4CAF50"/>

  <circle cx="125" cy="90" r="12" fill="#FF9800"/>
  <path d="M110 115C110 105 140 105 140 115" fill="#FF9800"/>

  <!-- Book -->
  <path d="M60 120L100 135L140 120V145L100 160L60 145V120Z" fill="white" stroke="#2196F3" stroke-width="2"/>
  <path d="M60 120L100 135V160L60 145V120Z" fill="#2196F3" opacity="0.8"/>
  <path d="M100 135L140 120V145L100 160V135Z" fill="#FF5722" opacity="0.8"/>
</svg>
